<mxfile host="65bd71144e" modified="2020-12-31T04:40:36.648Z" agent="5.0 (Windows NT 10.0; Win64; x64) AppleWebKit/537.36 (KHTML, like Gecko) Code/1.52.1 Chrome/83.0.4103.122 Electron/9.3.5 Safari/537.36" etag="QYjuPLH5GZx6xxa9jExw" version="13.10.0" type="embed">
    <diagram id="ShWjEkvY692qqDPODEVh" name="Page-1">
        <mxGraphModel dx="473" dy="220" grid="0" gridSize="10" guides="1" tooltips="1" connect="1" arrows="1" fold="1" page="1" pageScale="1" pageWidth="850" pageHeight="1100" math="0" shadow="0">
            <root>
                <mxCell id="0"/>
                <mxCell id="1" parent="0"/>
                <mxCell id="2" value="" style="whiteSpace=wrap;html=1;aspect=fixed;strokeColor=#36393d;fillColor=#cce5ff;" parent="1" vertex="1">
                    <mxGeometry x="40" y="40" width="800" height="800" as="geometry"/>
                </mxCell>
                <mxCell id="4" value="" style="whiteSpace=wrap;html=1;" parent="1" vertex="1">
                    <mxGeometry x="95" y="100" width="180" height="320" as="geometry"/>
                </mxCell>
                <mxCell id="5" value="&lt;font style=&quot;font-size: 23px&quot;&gt;Home screen&lt;/font&gt;" style="text;html=1;align=center;verticalAlign=middle;resizable=0;points=[];autosize=1;fontColor=#000000;" parent="1" vertex="1">
                    <mxGeometry x="112" y="70" width="150" height="20" as="geometry"/>
                </mxCell>
                <mxCell id="6" value="" style="whiteSpace=wrap;html=1;fillColor=#FFFFFF;strokeColor=none;" parent="1" vertex="1">
                    <mxGeometry x="335" y="100" width="180" height="320" as="geometry"/>
                </mxCell>
                <mxCell id="7" value="&lt;font style=&quot;font-size: 23px&quot;&gt;Detail screen&lt;/font&gt;" style="text;html=1;align=center;verticalAlign=middle;resizable=0;points=[];autosize=1;fontColor=#000000;" parent="1" vertex="1">
                    <mxGeometry x="350" y="70" width="150" height="20" as="geometry"/>
                </mxCell>
                <mxCell id="8" value="" style="whiteSpace=wrap;html=1;fillColor=#FFFFFF;" parent="1" vertex="1">
                    <mxGeometry x="575" y="100" width="180" height="320" as="geometry"/>
                </mxCell>
                <mxCell id="9" value="&lt;font style=&quot;font-size: 23px&quot;&gt;Manga screen&lt;/font&gt;" style="text;html=1;align=center;verticalAlign=middle;resizable=0;points=[];autosize=1;fontColor=#000000;" parent="1" vertex="1">
                    <mxGeometry x="585" y="70" width="160" height="20" as="geometry"/>
                </mxCell>
                <mxCell id="10" value="&lt;font style=&quot;font-size: 18px&quot;&gt;Color themes&lt;/font&gt;" style="text;html=1;align=center;verticalAlign=middle;resizable=0;points=[];autosize=1;fontColor=#000000;" parent="1" vertex="1">
                    <mxGeometry x="85" y="460" width="120" height="20" as="geometry"/>
                </mxCell>
                <mxCell id="11" value="&lt;b&gt;Darkgray&lt;/b&gt;" style="text;html=1;align=center;verticalAlign=middle;resizable=0;points=[];autosize=1;fontColor=#000000;" parent="1" vertex="1">
                    <mxGeometry x="85" y="480" width="70" height="20" as="geometry"/>
                </mxCell>
                <mxCell id="12" value="&lt;font color=&quot;#ffffff&quot;&gt;#353535&lt;/font&gt;" style="whiteSpace=wrap;html=1;fillColor=#353535;strokeColor=none;" parent="1" vertex="1">
                    <mxGeometry x="165" y="520" width="120" height="20" as="geometry"/>
                </mxCell>
                <mxCell id="13" value="&lt;b&gt;Lightgray&lt;/b&gt;" style="text;html=1;align=center;verticalAlign=middle;resizable=0;points=[];autosize=1;fontColor=#000000;" parent="1" vertex="1">
                    <mxGeometry x="85" y="520" width="70" height="20" as="geometry"/>
                </mxCell>
                <mxCell id="14" value="&lt;font color=&quot;#ffffff&quot;&gt;#333333&lt;/font&gt;" style="whiteSpace=wrap;html=1;fillColor=#333333;strokeColor=none;" parent="1" vertex="1">
                    <mxGeometry x="165" y="480" width="120" height="20" as="geometry"/>
                </mxCell>
                <mxCell id="15" value="&lt;font color=&quot;#ffffff&quot;&gt;#191919&lt;/font&gt;" style="whiteSpace=wrap;html=1;fillColor=#191919;strokeColor=none;" parent="1" vertex="1">
                    <mxGeometry x="405" y="480" width="120" height="20" as="geometry"/>
                </mxCell>
                <mxCell id="16" value="&lt;b&gt;Black&lt;/b&gt;" style="text;html=1;align=center;verticalAlign=middle;resizable=0;points=[];autosize=1;fontColor=#000000;" parent="1" vertex="1">
                    <mxGeometry x="325" y="480" width="50" height="20" as="geometry"/>
                </mxCell>
                <mxCell id="17" value="&lt;b&gt;Lightblue&lt;/b&gt;" style="text;html=1;align=center;verticalAlign=middle;resizable=0;points=[];autosize=1;fontColor=#000000;" parent="1" vertex="1">
                    <mxGeometry x="325" y="520" width="70" height="20" as="geometry"/>
                </mxCell>
                <mxCell id="18" value="&lt;font color=&quot;#ffffff&quot;&gt;#29B6F6&lt;/font&gt;" style="whiteSpace=wrap;html=1;fillColor=#29b6f6;strokeColor=none;" parent="1" vertex="1">
                    <mxGeometry x="405" y="520" width="120" height="20" as="geometry"/>
                </mxCell>
                <mxCell id="19" value="&lt;font color=&quot;#ffffff&quot;&gt;&amp;nbsp; Library&lt;/font&gt;" style="whiteSpace=wrap;html=1;fillColor=#333333;strokeColor=none;align=left;" parent="1" vertex="1">
                    <mxGeometry x="95" y="100" width="180" height="20" as="geometry"/>
                </mxCell>
                <mxCell id="20" value="" style="whiteSpace=wrap;html=1;fillColor=#333333;strokeColor=none;align=left;" parent="1" vertex="1">
                    <mxGeometry x="95" y="390" width="180" height="30" as="geometry"/>
                </mxCell>
                <mxCell id="21" value="&lt;font color=&quot;#ffffff&quot;&gt;&amp;nbsp; 77 mangas&lt;/font&gt;" style="whiteSpace=wrap;html=1;fillColor=#191919;strokeColor=none;align=left;" parent="1" vertex="1">
                    <mxGeometry x="95" y="120" width="180" height="20" as="geometry"/>
                </mxCell>
                <mxCell id="22" value="" style="whiteSpace=wrap;html=1;labelBackgroundColor=none;strokeColor=#353535;fontColor=none;rotation=90;direction=west;fillColor=#353535;" parent="1" vertex="1">
                    <mxGeometry x="70" y="165" width="110" height="60" as="geometry"/>
                </mxCell>
                <mxCell id="23" value="" style="whiteSpace=wrap;html=1;labelBackgroundColor=none;strokeColor=#353535;fontColor=none;rotation=90;direction=west;fillColor=#353535;" parent="1" vertex="1">
                    <mxGeometry x="130" y="165" width="110" height="60" as="geometry"/>
                </mxCell>
                <mxCell id="24" value="" style="whiteSpace=wrap;html=1;labelBackgroundColor=none;strokeColor=#353535;fontColor=none;rotation=90;direction=west;fillColor=#353535;" parent="1" vertex="1">
                    <mxGeometry x="190" y="165" width="110" height="60" as="geometry"/>
                </mxCell>
                <mxCell id="25" value="" style="whiteSpace=wrap;html=1;labelBackgroundColor=none;strokeColor=#353535;fontColor=none;rotation=90;fillColor=#757575;" parent="1" vertex="1">
                    <mxGeometry x="80" y="155" width="90" height="60" as="geometry"/>
                </mxCell>
                <mxCell id="26" value="" style="whiteSpace=wrap;html=1;labelBackgroundColor=none;strokeColor=#353535;fontColor=none;rotation=90;fillColor=#757575;" parent="1" vertex="1">
                    <mxGeometry x="140" y="155" width="90" height="60" as="geometry"/>
                </mxCell>
                <mxCell id="27" value="" style="whiteSpace=wrap;html=1;labelBackgroundColor=none;strokeColor=#353535;fontColor=none;rotation=90;fillColor=#757575;" parent="1" vertex="1">
                    <mxGeometry x="200" y="155" width="90" height="60" as="geometry"/>
                </mxCell>
                <mxCell id="53" value="" style="edgeStyle=orthogonalEdgeStyle;rounded=0;orthogonalLoop=1;jettySize=auto;html=1;" edge="1" parent="1" source="29" target="38">
                    <mxGeometry relative="1" as="geometry"/>
                </mxCell>
                <mxCell id="29" value="&lt;font color=&quot;#ffffff&quot;&gt;Manga 2&lt;/font&gt;" style="text;html=1;align=center;verticalAlign=middle;resizable=0;points=[];autosize=1;fontColor=none;" parent="1" vertex="1">
                    <mxGeometry x="155" y="230" width="60" height="20" as="geometry"/>
                </mxCell>
                <mxCell id="30" value="&lt;font color=&quot;#ffffff&quot;&gt;Manga 3&lt;/font&gt;" style="text;html=1;align=center;verticalAlign=middle;resizable=0;points=[];autosize=1;fontColor=none;" parent="1" vertex="1">
                    <mxGeometry x="215" y="230" width="60" height="20" as="geometry"/>
                </mxCell>
                <mxCell id="31" value="" style="whiteSpace=wrap;html=1;fillColor=#191919;strokeColor=none;" parent="1" vertex="1">
                    <mxGeometry x="95" y="250" width="180" height="10" as="geometry"/>
                </mxCell>
                <mxCell id="32" value="" style="whiteSpace=wrap;html=1;labelBackgroundColor=none;strokeColor=#353535;fontColor=none;rotation=90;direction=west;fillColor=#353535;" parent="1" vertex="1">
                    <mxGeometry x="70" y="285" width="110" height="60" as="geometry"/>
                </mxCell>
                <mxCell id="33" value="" style="whiteSpace=wrap;html=1;labelBackgroundColor=none;strokeColor=#353535;fontColor=none;rotation=90;fillColor=#757575;" parent="1" vertex="1">
                    <mxGeometry x="80" y="275" width="90" height="60" as="geometry"/>
                </mxCell>
                <mxCell id="34" value="" style="whiteSpace=wrap;html=1;labelBackgroundColor=none;strokeColor=#353535;fontColor=none;rotation=90;fillColor=#757575;" parent="1" vertex="1">
                    <mxGeometry x="140" y="275" width="90" height="60" as="geometry"/>
                </mxCell>
                <mxCell id="35" value="" style="whiteSpace=wrap;html=1;labelBackgroundColor=none;strokeColor=#353535;fontColor=none;rotation=90;direction=west;fillColor=#353535;" parent="1" vertex="1">
                    <mxGeometry x="130" y="285" width="110" height="60" as="geometry"/>
                </mxCell>
                <mxCell id="36" value="" style="whiteSpace=wrap;html=1;labelBackgroundColor=none;strokeColor=#353535;fontColor=none;rotation=90;fillColor=#757575;" parent="1" vertex="1">
                    <mxGeometry x="200" y="275" width="90" height="60" as="geometry"/>
                </mxCell>
                <mxCell id="37" value="" style="whiteSpace=wrap;html=1;labelBackgroundColor=none;strokeColor=#353535;fontColor=none;rotation=90;direction=west;fillColor=#353535;" parent="1" vertex="1">
                    <mxGeometry x="190" y="285" width="110" height="60" as="geometry"/>
                </mxCell>
                <mxCell id="38" value="" style="whiteSpace=wrap;html=1;labelBackgroundColor=none;strokeColor=#353535;fontColor=none;rotation=90;fillColor=#757575;" parent="1" vertex="1">
                    <mxGeometry x="140" y="275" width="90" height="60" as="geometry"/>
                </mxCell>
                <mxCell id="39" value="" style="whiteSpace=wrap;html=1;labelBackgroundColor=none;strokeColor=#353535;fontColor=none;rotation=90;fillColor=#757575;" parent="1" vertex="1">
                    <mxGeometry x="200" y="275" width="90" height="60" as="geometry"/>
                </mxCell>
                <mxCell id="40" value="&lt;font color=&quot;#ffffff&quot;&gt;Manga 1&lt;/font&gt;" style="text;html=1;align=center;verticalAlign=middle;resizable=0;points=[];autosize=1;fontColor=none;" parent="1" vertex="1">
                    <mxGeometry x="95" y="230" width="60" height="20" as="geometry"/>
                </mxCell>
                <mxCell id="41" value="" style="whiteSpace=wrap;html=1;fillColor=#191919;strokeColor=none;" parent="1" vertex="1">
                    <mxGeometry x="95" y="370" width="180" height="10" as="geometry"/>
                </mxCell>
                <mxCell id="42" value="" style="whiteSpace=wrap;html=1;labelBackgroundColor=none;strokeColor=#353535;fontColor=none;rotation=90;fillColor=#757575;" parent="1" vertex="1">
                    <mxGeometry x="118.75" y="356.25" width="12.5" height="60" as="geometry"/>
                </mxCell>
                <mxCell id="43" value="" style="whiteSpace=wrap;html=1;labelBackgroundColor=none;strokeColor=#353535;fontColor=none;rotation=90;fillColor=#757575;" parent="1" vertex="1">
                    <mxGeometry x="178.75" y="356.25" width="12.5" height="60" as="geometry"/>
                </mxCell>
                <mxCell id="44" value="" style="whiteSpace=wrap;html=1;labelBackgroundColor=none;strokeColor=#353535;fontColor=none;rotation=90;fillColor=#757575;" parent="1" vertex="1">
                    <mxGeometry x="238.75" y="356.25" width="12.5" height="60" as="geometry"/>
                </mxCell>
                <mxCell id="45" value="&lt;font color=&quot;#ffffff&quot;&gt;Manga 4&lt;/font&gt;" style="text;html=1;align=center;verticalAlign=middle;resizable=0;points=[];autosize=1;fontColor=none;" parent="1" vertex="1">
                    <mxGeometry x="95" y="350" width="60" height="20" as="geometry"/>
                </mxCell>
                <mxCell id="46" value="&lt;font color=&quot;#ffffff&quot;&gt;Manga 5&lt;/font&gt;" style="text;html=1;align=center;verticalAlign=middle;resizable=0;points=[];autosize=1;fontColor=none;" parent="1" vertex="1">
                    <mxGeometry x="155" y="350" width="60" height="20" as="geometry"/>
                </mxCell>
                <mxCell id="47" value="&lt;font color=&quot;#ffffff&quot;&gt;Manga 6&lt;/font&gt;" style="text;html=1;align=center;verticalAlign=middle;resizable=0;points=[];autosize=1;fontColor=none;" parent="1" vertex="1">
                    <mxGeometry x="215" y="350" width="60" height="20" as="geometry"/>
                </mxCell>
                <mxCell id="48" value="&lt;font color=&quot;#29b6f6&quot;&gt;Discover&lt;/font&gt;" style="text;html=1;align=center;verticalAlign=middle;resizable=0;points=[];autosize=1;fontColor=none;" parent="1" vertex="1">
                    <mxGeometry x="95" y="400" width="60" height="20" as="geometry"/>
                </mxCell>
                <mxCell id="49" value="&lt;font color=&quot;#29b6f6&quot;&gt;Favorite&lt;/font&gt;" style="text;html=1;align=center;verticalAlign=middle;resizable=0;points=[];autosize=1;fontColor=none;" parent="1" vertex="1">
                    <mxGeometry x="155" y="400" width="60" height="20" as="geometry"/>
                </mxCell>
                <mxCell id="50" value="&lt;font color=&quot;#29b6f6&quot;&gt;Recent&lt;/font&gt;" style="text;html=1;align=center;verticalAlign=middle;resizable=0;points=[];autosize=1;fontColor=none;" parent="1" vertex="1">
                    <mxGeometry x="220" y="400" width="50" height="20" as="geometry"/>
                </mxCell>
                <mxCell id="51" value="&lt;font style=&quot;font-size: 18px&quot;&gt;Data from :&amp;nbsp;&lt;/font&gt;" style="text;html=1;align=center;verticalAlign=middle;resizable=0;points=[];autosize=1;fontColor=#000000;" parent="1" vertex="1">
                    <mxGeometry x="95" y="562" width="104" height="20" as="geometry"/>
                </mxCell>
                <mxCell id="52" value="&lt;span style=&quot;font-size: 18px&quot;&gt;https://m.manganelo.com&lt;/span&gt;" style="text;html=1;align=center;verticalAlign=middle;resizable=0;points=[];autosize=1;fontColor=#000000;" parent="1" vertex="1">
                    <mxGeometry x="95" y="582" width="212" height="20" as="geometry"/>
                </mxCell>
            </root>
        </mxGraphModel>
    </diagram>
</mxfile>